<?xml version="1.0"?>
<svg xmlns="http://www.w3.org/2000/svg" id="Layer_1" data-name="Layer 1" viewBox="0 0 512 512" width="512" height="512"><title>Public Relations</title><path d="M283.053,224.244c-.11,1.8-.157,15.931-.17,20.839l-19.555,51.223a10.619,10.619,0,0,0,9.922,14.408H297.9v19.894h-.462a20.113,20.113,0,0,0,.246,40.225h.231l41.687-.639a5.983,5.983,0,0,0,4.688-2.38c4.618-.023,9.527-.044,13.794-.063h.038a8.9,8.9,0,0,1,8.649,6.746l8.7,34.6a6,6,0,0,0,5.819,4.536h96.835a6,6,0,0,0,5.8-7.545c-.162-.607-16.129-61.136-12.606-98.983.81-8.693,8.608-29.486,11.688-37.129a102.464,102.464,0,0,0-2.469-99.193,100.525,100.525,0,0,0-83.622-50.343q-1.408-.051-2.829-.066a109.938,109.938,0,0,0-111.03,103.87Zm14.7,134.589h-.093a8.113,8.113,0,0,1-5.808-13.777,8.023,8.023,0,0,1,5.651-2.449h35.69l.229,15.679ZM470.16,176.815a90.521,90.521,0,0,1,2.069,87.869c-.089.171-.17.347-.243.525-1.173,2.9-11.489,28.646-12.619,40.784-1.571,16.872.14,39.39,5.085,66.927,2.152,11.987,4.44,22.2,5.993,28.713h-84.48l-7.56-30.063a20.849,20.849,0,0,0-18.217-15.7l6.073-.037a40.892,40.892,0,0,0,40.509-41.27l-.08-8.55A37.335,37.335,0,0,0,439.113,268.5l-.053-3.916a37.447,37.447,0,0,0-31.633-36.4V133.505A88.657,88.657,0,0,1,470.16,176.815Zm-68.678,62.923h.239a25.4,25.4,0,0,1,25.34,25l.053,3.916a25.346,25.346,0,0,1-25.107,25.686h-.238a25.4,25.4,0,0,1-25.341-25l-.053-3.916a25.347,25.347,0,0,1,25.107-25.686Zm-8.65-107.371c.368,0,.747,0,1.116.006.5,0,.986.022,1.479.034V228.27a37.348,37.348,0,0,0-31.051,37.315l.053,3.916a37.443,37.443,0,0,0,30.258,36.158l.084,9.014a28.92,28.92,0,0,1-28.6,29.159l-20.955.129-.109-7.44a6,6,0,0,0-6-5.913H309.9V304.714a6,6,0,0,0-6-6H275.253l19.232-50.377a5.989,5.989,0,0,0,.395-2.126c.022-9.386.082-20.021.153-21.279A97.691,97.691,0,0,1,392.832,132.367Z"/><path d="M136.9,126.051a6,6,0,0,0,7.113,4.628l46.005-9.738a6,6,0,0,0,2.029-10.9L169.9,95.631A122.492,122.492,0,0,1,348.123,84.068a6,6,0,1,0,8.191-8.77,134.493,134.493,0,0,0-196.535,13.75L136.3,73.774a6,6,0,0,0-9.142,6.272Zm20.642-24.143.026.021c.047.035.1.059.148.092l15.645,10.18L147.4,117.7,141.9,91.732Z"/><path d="M246.185,458.319a122.7,122.7,0,0,1-109.058-30.387,6,6,0,1,0-8.191,8.77,134.493,134.493,0,0,0,196.535-13.75l23.476,15.274a6,6,0,0,0,9.142-6.272l-9.737-46a6,6,0,0,0-7.113-4.628l-46,9.738a6,6,0,0,0-2.029,10.9l22.149,14.411A122.3,122.3,0,0,1,246.185,458.319ZM337.854,394.3l5.5,25.964L327.71,410.092l-.026-.021a5.986,5.986,0,0,0-.6-.388l-15.19-9.884Z"/><path d="M39.626,311.7c3.359,36.076-11.87,93.809-12.024,94.388a6,6,0,0,0,5.8,7.545h92.434a6,6,0,0,0,5.819-4.536l8.306-33.028a8.2,8.2,0,0,1,8.027-6.232c24.443.1,28.309.151,28.837.168a28.178,28.178,0,0,0,20.366-7.907,27.819,27.819,0,0,0,8.519-20.136v-26.57H228.96a10.411,10.411,0,0,0,9.727-14.123l-18.649-48.848c-.013-4.732-.058-18.132-.161-19.817a104.966,104.966,0,0,0-106.259-99.446c-.906.01-1.808.031-2.711.064a96.226,96.226,0,0,0-80.044,48.189,98.077,98.077,0,0,0-2.369,94.937C31.433,283.641,38.856,303.431,39.626,311.7Zm1.61-124.256a84.286,84.286,0,0,1,70.1-42.23c.8-.028,1.605-.048,2.414-.057A92.981,92.981,0,0,1,207.9,233.288c.065,1.182.123,11.321.144,20.261a5.993,5.993,0,0,0,.4,2.126l18.216,47.717H199.707a6,6,0,0,0-6,6v32.57A16.057,16.057,0,0,1,177.2,358.011c-1.272-.04-11.083-.1-29.161-.174h-.086a20.2,20.2,0,0,0-19.628,15.306l-7.166,28.49H41.082c4.135-17.318,13.338-60.482,10.493-91.046-1.082-11.624-10.944-36.237-12.064-39.006q-.11-.269-.243-.526A86.133,86.133,0,0,1,41.236,187.444Z"/></svg>
